<mxfile host="Electron" modified="2024-03-01T17:38:59.986Z" agent="Mozilla/5.0 (Windows NT 10.0; Win64; x64) AppleWebKit/537.36 (KHTML, like Gecko) draw.io/23.1.5 Chrome/120.0.6099.109 Electron/28.1.0 Safari/537.36" etag="lLGHpEsrWQ2lMGdSxERi" version="23.1.5" type="device" pages="3">
  <diagram name="ключевые идеи" id="IHP7D4Me0NVqwyBUb0IM">
    <mxGraphModel dx="875" dy="546" grid="1" gridSize="10" guides="1" tooltips="1" connect="1" arrows="1" fold="1" page="1" pageScale="1" pageWidth="850" pageHeight="1100" math="0" shadow="0">
      <root>
        <mxCell id="0" />
        <mxCell id="1" parent="0" />
        <mxCell id="zRWuvU-WM0ZMUJbcXtLN-1" value="01-03-2024&lt;br&gt;&lt;br&gt;Ключевое решение новой ветки разработки&lt;br&gt;&lt;br&gt;Бюджет считается по расходам (payments), отнесенным к этому бюджету (payment.budgetId) заданный месяц.&lt;br&gt;&lt;br&gt;То есть для подсчета выбранного бюджета:&lt;br&gt;- поиск платежей в пределах заданного месяца&lt;br&gt;- равно как по id данного бюджета" style="rounded=0;whiteSpace=wrap;html=1;fillColor=#fff2cc;gradientColor=#ffd966;strokeColor=#d6b656;" vertex="1" parent="1">
          <mxGeometry x="40" y="20" width="290" height="180" as="geometry" />
        </mxCell>
        <mxCell id="zRWuvU-WM0ZMUJbcXtLN-2" value="Выделение средств на данный бюджет проводится путем добавления зачисления на данный бюджет budget incoming" style="rounded=0;whiteSpace=wrap;html=1;fillColor=#fff2cc;gradientColor=#ffd966;strokeColor=#d6b656;" vertex="1" parent="1">
          <mxGeometry x="360" y="40" width="280" height="120" as="geometry" />
        </mxCell>
        <mxCell id="zRWuvU-WM0ZMUJbcXtLN-3" value="payment имеет свойство commited&lt;br&gt;что позволит планировать покупки" style="rounded=0;whiteSpace=wrap;html=1;fillColor=#fff2cc;gradientColor=#ffd966;strokeColor=#d6b656;" vertex="1" parent="1">
          <mxGeometry x="680" y="40" width="290" height="120" as="geometry" />
        </mxCell>
        <mxCell id="zRWuvU-WM0ZMUJbcXtLN-5" value="Элемент расхода - payment&lt;br&gt;- образец (payment-sample) содердит категорию, которая копируется при создании платежа (payment)" style="rounded=0;whiteSpace=wrap;html=1;fillColor=#fff2cc;gradientColor=#ffd966;strokeColor=#d6b656;" vertex="1" parent="1">
          <mxGeometry x="40" y="240" width="280" height="120" as="geometry" />
        </mxCell>
      </root>
    </mxGraphModel>
  </diagram>
  <diagram id="QbpkyEu1bem7XqxaARWY" name="Page-2">
    <mxGraphModel dx="4313" dy="2770" grid="1" gridSize="10" guides="1" tooltips="1" connect="1" arrows="1" fold="1" page="1" pageScale="1" pageWidth="850" pageHeight="1100" math="0" shadow="0">
      <root>
        <mxCell id="0" />
        <mxCell id="1" parent="0" />
        <mxCell id="EPYEPtC0MzFVxyyVFv4B-6" value="Категории покупок (теги)&lt;br&gt;&lt;br&gt;- Продукты&lt;br&gt;- Сладости&lt;br&gt;- Хозтовары&lt;br&gt;- Автомобиль" style="text;html=1;align=left;verticalAlign=top;whiteSpace=wrap;rounded=0;horizontal=1;" parent="1" vertex="1">
          <mxGeometry x="280" y="-560" width="320" height="100" as="geometry" />
        </mxCell>
        <mxCell id="EPYEPtC0MzFVxyyVFv4B-14" style="edgeStyle=orthogonalEdgeStyle;rounded=0;orthogonalLoop=1;jettySize=auto;html=1;exitX=0.25;exitY=0;exitDx=0;exitDy=0;entryX=1;entryY=0.5;entryDx=0;entryDy=0;" parent="1" source="EPYEPtC0MzFVxyyVFv4B-7" target="EPYEPtC0MzFVxyyVFv4B-13" edge="1">
          <mxGeometry relative="1" as="geometry" />
        </mxCell>
        <mxCell id="EPYEPtC0MzFVxyyVFv4B-7" value="При вводе покупки выбрать пространство бюджета, куда покупка относится.&lt;br&gt;&lt;br&gt;&lt;strike&gt;А так же выбрать счет, с которого покупка была совершена.&lt;/strike&gt;" style="text;html=1;align=left;verticalAlign=top;whiteSpace=wrap;rounded=0;horizontal=1;" parent="1" vertex="1">
          <mxGeometry x="-190" y="-660" width="320" height="90" as="geometry" />
        </mxCell>
        <mxCell id="EPYEPtC0MzFVxyyVFv4B-10" style="edgeStyle=orthogonalEdgeStyle;rounded=0;orthogonalLoop=1;jettySize=auto;html=1;exitX=0;exitY=0.5;exitDx=0;exitDy=0;" parent="1" source="EPYEPtC0MzFVxyyVFv4B-8" target="EPYEPtC0MzFVxyyVFv4B-9" edge="1">
          <mxGeometry relative="1" as="geometry" />
        </mxCell>
        <mxCell id="EPYEPtC0MzFVxyyVFv4B-8" value="&lt;strike&gt;Если не понятно с какого счета была сделана покупка, можно просто обновить сотояние счет вручную&lt;/strike&gt;" style="text;html=1;align=left;verticalAlign=top;whiteSpace=wrap;rounded=0;horizontal=1;" parent="1" vertex="1">
          <mxGeometry x="-200" y="-560" width="320" height="50" as="geometry" />
        </mxCell>
        <mxCell id="EPYEPtC0MzFVxyyVFv4B-9" value="Пока не заморачиваться со счетом.&lt;br&gt;&lt;br&gt;Просто планировать бюджет и записывать покупки." style="text;html=1;align=left;verticalAlign=top;whiteSpace=wrap;rounded=0;horizontal=1;" parent="1" vertex="1">
          <mxGeometry x="-540" y="-550" width="210" height="80" as="geometry" />
        </mxCell>
        <mxCell id="EPYEPtC0MzFVxyyVFv4B-11" value="Запланированная покупка" style="text;html=1;align=left;verticalAlign=top;whiteSpace=wrap;rounded=0;horizontal=1;" parent="1" vertex="1">
          <mxGeometry x="-560" y="-400" width="200" height="40" as="geometry" />
        </mxCell>
        <mxCell id="EPYEPtC0MzFVxyyVFv4B-12" value="Связана с бюджетом, лежит в отдельной таблице IntendedProduct" style="text;html=1;align=left;verticalAlign=top;whiteSpace=wrap;rounded=0;horizontal=1;" parent="1" vertex="1">
          <mxGeometry x="-560" y="-340" width="200" height="60" as="geometry" />
        </mxCell>
        <mxCell id="EPYEPtC0MzFVxyyVFv4B-16" style="edgeStyle=orthogonalEdgeStyle;rounded=0;orthogonalLoop=1;jettySize=auto;html=1;exitX=0.75;exitY=0;exitDx=0;exitDy=0;" parent="1" source="EPYEPtC0MzFVxyyVFv4B-13" target="EPYEPtC0MzFVxyyVFv4B-15" edge="1">
          <mxGeometry relative="1" as="geometry" />
        </mxCell>
        <mxCell id="EPYEPtC0MzFVxyyVFv4B-13" value="Для построения детализации бюджета, как правило будет интересовать расходы по категориям, будут собираться все покупки, отнесенные к данному бюджету и группироваться по категориям." style="text;html=1;align=left;verticalAlign=top;whiteSpace=wrap;rounded=0;horizontal=1;fillColor=#d5e8d4;strokeColor=#82b366;" parent="1" vertex="1">
          <mxGeometry x="-550" y="-800" width="310" height="80" as="geometry" />
        </mxCell>
        <mxCell id="EPYEPtC0MzFVxyyVFv4B-15" value="Если купили аос для джоя, в главном окне сбора коллекции покупок будет установлен бюджет &quot;Джой&quot;. Просто выбрав Аос, наименование которого содержит тег &quot;Моющие средства&quot;, получится картина&lt;br&gt;Джой : Моющие средства.&lt;br&gt;То есть данная покупка будет отнесена к расходам на джой." style="text;html=1;align=left;verticalAlign=top;whiteSpace=wrap;rounded=0;horizontal=1;fillColor=#d5e8d4;strokeColor=#82b366;" parent="1" vertex="1">
          <mxGeometry x="-450" y="-1030" width="400" height="110" as="geometry" />
        </mxCell>
        <mxCell id="EPYEPtC0MzFVxyyVFv4B-17" value="Наименование покупки содержит поисковый идентификатор, а так же имеет тег категории.&lt;br&gt;&lt;br&gt;По тэгу категории происходит группировка статей расхода бюджета." style="text;html=1;align=left;verticalAlign=top;whiteSpace=wrap;rounded=0;horizontal=1;fillColor=#d5e8d4;strokeColor=#82b366;" parent="1" vertex="1">
          <mxGeometry x="40" y="-1080" width="400" height="80" as="geometry" />
        </mxCell>
        <mxCell id="EPYEPtC0MzFVxyyVFv4B-18" value="Покупка (class Product), имеет поле &quot;commited&quot; которая означает, что покупка совершена, деньги отданы.&lt;br&gt;При создании покупки, она автоматически ставится в true.&lt;br&gt;&lt;br&gt;В окне Запланированные покупки при создании такой покупки ставится&lt;br&gt;commited = false&lt;br&gt;Это означает, что покупка запланирована, висит долг, но деньги еще не отданы." style="text;html=1;align=left;verticalAlign=top;whiteSpace=wrap;rounded=0;horizontal=1;fillColor=#d5e8d4;strokeColor=#82b366;" parent="1" vertex="1">
          <mxGeometry x="120" y="-960" width="440" height="130" as="geometry" />
        </mxCell>
        <mxCell id="EPYEPtC0MzFVxyyVFv4B-20" value="Бюджет можно открыть, можно закрыть.&lt;br&gt;Если бюджет закрыт, он не отображается в рабочем пространстве.&lt;br&gt;&lt;br&gt;Если бюджет не закрыт, он показан в рабочем пространстве в коллекции.&lt;br&gt;&lt;div&gt;&lt;br/&gt;&lt;/div&gt;" style="text;html=1;align=left;verticalAlign=top;whiteSpace=wrap;rounded=0;horizontal=1;fillColor=#d5e8d4;strokeColor=#82b366;" parent="1" vertex="1">
          <mxGeometry x="-450" y="-1479" width="400" height="89" as="geometry" />
        </mxCell>
        <mxCell id="EPYEPtC0MzFVxyyVFv4B-24" style="edgeStyle=orthogonalEdgeStyle;rounded=0;orthogonalLoop=1;jettySize=auto;html=1;exitX=0.5;exitY=1;exitDx=0;exitDy=0;" parent="1" source="EPYEPtC0MzFVxyyVFv4B-22" target="EPYEPtC0MzFVxyyVFv4B-23" edge="1">
          <mxGeometry relative="1" as="geometry" />
        </mxCell>
        <mxCell id="EPYEPtC0MzFVxyyVFv4B-22" value="Бюджет кредита может быть оформлен просто как суммой с отрицательным значением.&lt;br&gt;&lt;br&gt;То есть кредитный долг сделать как&amp;nbsp;" style="text;html=1;align=left;verticalAlign=top;whiteSpace=wrap;rounded=0;horizontal=1;fillColor=#d5e8d4;strokeColor=#82b366;" parent="1" vertex="1">
          <mxGeometry x="660" y="-960" width="440" height="130" as="geometry" />
        </mxCell>
        <mxCell id="EPYEPtC0MzFVxyyVFv4B-26" style="edgeStyle=orthogonalEdgeStyle;rounded=0;orthogonalLoop=1;jettySize=auto;html=1;exitX=0.5;exitY=1;exitDx=0;exitDy=0;" parent="1" source="EPYEPtC0MzFVxyyVFv4B-23" target="EPYEPtC0MzFVxyyVFv4B-25" edge="1">
          <mxGeometry relative="1" as="geometry" />
        </mxCell>
        <mxCell id="EPYEPtC0MzFVxyyVFv4B-30" style="edgeStyle=orthogonalEdgeStyle;rounded=0;orthogonalLoop=1;jettySize=auto;html=1;exitX=1;exitY=0.5;exitDx=0;exitDy=0;entryX=0;entryY=0.5;entryDx=0;entryDy=0;" parent="1" source="EPYEPtC0MzFVxyyVFv4B-23" target="EPYEPtC0MzFVxyyVFv4B-29" edge="1">
          <mxGeometry relative="1" as="geometry" />
        </mxCell>
        <mxCell id="EPYEPtC0MzFVxyyVFv4B-32" style="edgeStyle=orthogonalEdgeStyle;rounded=0;orthogonalLoop=1;jettySize=auto;html=1;exitX=0;exitY=0.5;exitDx=0;exitDy=0;" parent="1" source="EPYEPtC0MzFVxyyVFv4B-23" target="EPYEPtC0MzFVxyyVFv4B-31" edge="1">
          <mxGeometry relative="1" as="geometry" />
        </mxCell>
        <mxCell id="EPYEPtC0MzFVxyyVFv4B-23" value="Покупка = Payment&lt;br&gt;&lt;br&gt;Имеет + или -&lt;br&gt;(-) означает расход&lt;br&gt;(+) означает приход" style="text;html=1;align=left;verticalAlign=top;whiteSpace=wrap;rounded=0;horizontal=1;fillColor=#d5e8d4;strokeColor=#82b366;" parent="1" vertex="1">
          <mxGeometry x="730" y="-780" width="440" height="90" as="geometry" />
        </mxCell>
        <mxCell id="EPYEPtC0MzFVxyyVFv4B-28" style="edgeStyle=orthogonalEdgeStyle;rounded=0;orthogonalLoop=1;jettySize=auto;html=1;exitX=0.5;exitY=1;exitDx=0;exitDy=0;" parent="1" source="EPYEPtC0MzFVxyyVFv4B-25" target="EPYEPtC0MzFVxyyVFv4B-27" edge="1">
          <mxGeometry relative="1" as="geometry" />
        </mxCell>
        <mxCell id="EPYEPtC0MzFVxyyVFv4B-25" value="В каждом месяце бюджет имеет +Payment и коллекцию -Payment&lt;br&gt;&lt;br&gt;+Payment означает выделенную сумму." style="text;html=1;align=left;verticalAlign=top;whiteSpace=wrap;rounded=0;horizontal=1;fillColor=#d5e8d4;strokeColor=#82b366;" parent="1" vertex="1">
          <mxGeometry x="760" y="-640" width="440" height="90" as="geometry" />
        </mxCell>
        <mxCell id="EPYEPtC0MzFVxyyVFv4B-27" value="Payment имеет commited property, см. выше" style="text;html=1;align=left;verticalAlign=top;whiteSpace=wrap;rounded=0;horizontal=1;fillColor=#d5e8d4;strokeColor=#82b366;" parent="1" vertex="1">
          <mxGeometry x="800" y="-490" width="440" height="90" as="geometry" />
        </mxCell>
        <mxCell id="EPYEPtC0MzFVxyyVFv4B-29" value="PaymentClass&lt;br&gt;- finding tag&lt;br&gt;- category" style="text;html=1;align=left;verticalAlign=top;whiteSpace=wrap;rounded=0;horizontal=1;fillColor=#d5e8d4;strokeColor=#82b366;" parent="1" vertex="1">
          <mxGeometry x="1240" y="-780" width="440" height="100" as="geometry" />
        </mxCell>
        <mxCell id="EPYEPtC0MzFVxyyVFv4B-31" value="Payment&lt;br&gt;- sum (must be &amp;gt;= 0)&lt;br&gt;- count&lt;br&gt;- name&lt;br&gt;- categoryId (tagId)&lt;br&gt;- direction (0: outcome; 1 : income)&lt;br&gt;- budgetId&lt;br&gt;- commited" style="text;html=1;align=left;verticalAlign=top;whiteSpace=wrap;rounded=0;horizontal=1;fillColor=#d5e8d4;strokeColor=#82b366;" parent="1" vertex="1">
          <mxGeometry x="350" y="-760" width="250" height="130" as="geometry" />
        </mxCell>
        <mxCell id="EPYEPtC0MzFVxyyVFv4B-33" value="29-02-2024&lt;br&gt;Итак, план действия" style="text;html=1;align=center;verticalAlign=top;whiteSpace=wrap;rounded=0;horizontal=1;fillColor=#d5e8d4;strokeColor=#82b366;" parent="1" vertex="1">
          <mxGeometry x="950" y="-280" width="440" height="40" as="geometry" />
        </mxCell>
        <mxCell id="EPYEPtC0MzFVxyyVFv4B-34" value="Ввод расходов в контексте бюджета; бюджет не имеет своей коллекции&lt;br&gt;На главной странице коллекция бюджетов" style="text;html=1;align=center;verticalAlign=top;whiteSpace=wrap;rounded=0;horizontal=1;fillColor=#d5e8d4;strokeColor=#82b366;" parent="1" vertex="1">
          <mxGeometry x="950" y="-200" width="440" height="40" as="geometry" />
        </mxCell>
        <mxCell id="EPYEPtC0MzFVxyyVFv4B-35" value="Ввод расходов в проходит контексте бюджета; бюджет не имеет своего дерева категорий" style="text;html=1;align=center;verticalAlign=top;whiteSpace=wrap;rounded=0;horizontal=1;fillColor=#d0cee2;strokeColor=#56517e;" parent="1" vertex="1">
          <mxGeometry x="1000" y="-140" width="440" height="40" as="geometry" />
        </mxCell>
        <mxCell id="EPYEPtC0MzFVxyyVFv4B-36" value="Модуль расчета&amp;nbsp; ФОТ отдельный, но этот модуль тоже учавствует в&amp;nbsp; картине расходов" style="text;html=1;align=center;verticalAlign=top;whiteSpace=wrap;rounded=0;horizontal=1;fillColor=#d0cee2;strokeColor=#56517e;" parent="1" vertex="1">
          <mxGeometry x="1000" y="-80" width="440" height="40" as="geometry" />
        </mxCell>
        <mxCell id="scR4NEpa1EULSgcf9uN0-1" value="Страницы приложения" style="text;html=1;align=center;verticalAlign=top;whiteSpace=wrap;rounded=0;horizontal=1;fillColor=#b0e3e6;strokeColor=#0e8088;" parent="1" vertex="1">
          <mxGeometry x="1970" y="-390" width="440" height="40" as="geometry" />
        </mxCell>
        <mxCell id="scR4NEpa1EULSgcf9uN0-2" value="см. раздел &quot;Страницы приложения&quot; на данной странице" style="text;html=1;align=center;verticalAlign=top;whiteSpace=wrap;rounded=0;horizontal=1;fillColor=#d5e8d4;strokeColor=#82b366;" parent="1" vertex="1">
          <mxGeometry x="950" y="-10" width="440" height="40" as="geometry" />
        </mxCell>
        <mxCell id="scR4NEpa1EULSgcf9uN0-3" value="Главная страница&lt;br&gt;-&amp;nbsp;" style="text;html=1;align=center;verticalAlign=top;whiteSpace=wrap;rounded=0;horizontal=1;fillColor=#b0e3e6;strokeColor=#0e8088;" parent="1" vertex="1">
          <mxGeometry x="1970" y="-320" width="440" height="40" as="geometry" />
        </mxCell>
        <mxCell id="scR4NEpa1EULSgcf9uN0-4" value="Задача 1&lt;div&gt;&lt;br&gt;&lt;/div&gt;&lt;div&gt;Коллекция бюджетов&lt;/div&gt;&lt;div&gt;Создать бюджет&lt;/div&gt;&lt;div&gt;&lt;br&gt;&lt;/div&gt;&lt;div&gt;&lt;br&gt;&lt;/div&gt;&lt;div&gt;Если бюджет не имеет поступлений период, просто показать расходы&lt;/div&gt;&lt;div&gt;Если бюджет имеет пополнения за период, показать балланс&lt;/div&gt;" style="text;html=1;align=left;verticalAlign=top;whiteSpace=wrap;rounded=0;horizontal=1;fillColor=#d5e8d4;strokeColor=#82b366;" parent="1" vertex="1">
          <mxGeometry x="950" y="140" width="440" height="140" as="geometry" />
        </mxCell>
        <mxCell id="scR4NEpa1EULSgcf9uN0-5" value="Задача 2&lt;div&gt;&lt;br&gt;&lt;/div&gt;&lt;div&gt;Добавить поисковый тег&lt;/div&gt;&lt;div&gt;Добавить категорию платежа&lt;/div&gt;&lt;div&gt;&lt;br&gt;&lt;/div&gt;" style="text;html=1;align=left;verticalAlign=top;whiteSpace=wrap;rounded=0;horizontal=1;fillColor=#d5e8d4;strokeColor=#82b366;" parent="1" vertex="1">
          <mxGeometry x="950" y="310" width="440" height="80" as="geometry" />
        </mxCell>
        <mxCell id="scR4NEpa1EULSgcf9uN0-6" value="Задача 3&lt;div&gt;&lt;br&gt;&lt;/div&gt;&lt;div&gt;Добавить платеж в контексте бюджета&lt;/div&gt;" style="text;html=1;align=left;verticalAlign=top;whiteSpace=wrap;rounded=0;horizontal=1;fillColor=#d5e8d4;strokeColor=#82b366;" parent="1" vertex="1">
          <mxGeometry x="950" y="420" width="440" height="80" as="geometry" />
        </mxCell>
        <mxCell id="5XaU7xWRvJzvQ2dgXScY-3" style="edgeStyle=orthogonalEdgeStyle;rounded=0;orthogonalLoop=1;jettySize=auto;html=1;exitX=0.5;exitY=0;exitDx=0;exitDy=0;" edge="1" parent="1" source="scR4NEpa1EULSgcf9uN0-7" target="5XaU7xWRvJzvQ2dgXScY-2">
          <mxGeometry relative="1" as="geometry" />
        </mxCell>
        <mxCell id="scR4NEpa1EULSgcf9uN0-7" value="Расчет начислений работникам&lt;br&gt;&lt;div&gt;&lt;br&gt;&lt;/div&gt;&lt;div&gt;&lt;span style=&quot;background-color: initial;&quot;&gt;Скопировать предидущий документ&lt;/span&gt;&lt;br&gt;&lt;/div&gt;&lt;div&gt;&lt;span style=&quot;background-color: initial;&quot;&gt;ищется предидущий месячный документ работников&lt;/span&gt;&lt;/div&gt;&lt;div&gt;&lt;span style=&quot;background-color: initial;&quot;&gt;создается копия по каждому работнику последнего месяца&lt;/span&gt;&lt;/div&gt;&lt;div&gt;- коллекция работников&lt;/div&gt;&lt;div&gt;- их начисления&lt;/div&gt;&lt;div&gt;&lt;br&gt;&lt;/div&gt;&lt;div&gt;Если работник имеет постоянную работу, создать в таблице единиц работы его позицию. Например для цеховых. Из этой позиции будет создаваться платеж&lt;/div&gt;&lt;div&gt;&lt;br&gt;&lt;/div&gt;&lt;div&gt;Платеж это экземпляр класса платежы. Имеет наименование, описание, стоимость, количество.&lt;/div&gt;" style="text;html=1;align=left;verticalAlign=top;whiteSpace=wrap;rounded=0;horizontal=1;fillColor=#d5e8d4;strokeColor=#82b366;" parent="1" vertex="1">
          <mxGeometry x="1880" y="-920" width="440" height="220" as="geometry" />
        </mxCell>
        <mxCell id="scR4NEpa1EULSgcf9uN0-8" value="Поступление в бюджет и расход (платеж) это разные таблицы" style="text;html=1;align=left;verticalAlign=top;whiteSpace=wrap;rounded=0;horizontal=1;fillColor=#d5e8d4;strokeColor=#82b366;" parent="1" vertex="1">
          <mxGeometry x="1000" y="-1479" width="440" height="39" as="geometry" />
        </mxCell>
        <mxCell id="scR4NEpa1EULSgcf9uN0-9" value="Сервис работы с начислениями работников&lt;br&gt;-&amp;nbsp;" style="text;html=1;align=left;verticalAlign=top;whiteSpace=wrap;rounded=0;horizontal=1;fillColor=#d5e8d4;strokeColor=#82b366;" parent="1" vertex="1">
          <mxGeometry x="2390" y="-920" width="440" height="60" as="geometry" />
        </mxCell>
        <mxCell id="scR4NEpa1EULSgcf9uN0-12" value="Сервис начисления работникам" style="ellipse;whiteSpace=wrap;html=1;" parent="1" vertex="1">
          <mxGeometry x="3251" y="-1060" width="200" height="120" as="geometry" />
        </mxCell>
        <mxCell id="scR4NEpa1EULSgcf9uN0-13" value="Документ начисления&lt;br&gt;- год&lt;br&gt;- месяц&lt;br&gt;- коллекция работников&lt;br&gt;-&amp;gt; коллекция начисление работнику&lt;br&gt;начисление имеет флаг commited" style="rounded=1;whiteSpace=wrap;html=1;align=left;verticalAlign=top;spacingLeft=12;spacingTop=2;" parent="1" vertex="1">
          <mxGeometry x="3010" y="-1260" width="300" height="150" as="geometry" />
        </mxCell>
        <mxCell id="scR4NEpa1EULSgcf9uN0-14" value="Скопировать предидущий документ" style="rounded=1;whiteSpace=wrap;html=1;" parent="1" vertex="1">
          <mxGeometry x="3410" y="-1220" width="260" height="70" as="geometry" />
        </mxCell>
        <mxCell id="5XaU7xWRvJzvQ2dgXScY-1" value="Универсальный payment для расходов (покупок) и для начисления оплаты труда работникам.&lt;br&gt;&lt;div&gt;&lt;br/&gt;&lt;/div&gt;" style="text;html=1;align=left;verticalAlign=top;whiteSpace=wrap;rounded=0;horizontal=1;fillColor=#f8cecc;strokeColor=#b85450;" vertex="1" parent="1">
          <mxGeometry x="1350" y="-1320" width="440" height="170" as="geometry" />
        </mxCell>
        <mxCell id="5XaU7xWRvJzvQ2dgXScY-2" value="Документ месяца имеет как id так и уникальный ключ year-month" style="text;html=1;align=left;verticalAlign=top;whiteSpace=wrap;rounded=0;horizontal=1;fillColor=#d5e8d4;strokeColor=#82b366;" vertex="1" parent="1">
          <mxGeometry x="1880" y="-1000" width="440" height="40" as="geometry" />
        </mxCell>
        <mxCell id="yVNcflpGH8CNTxHUd0Nu-1" value="Отдельно существует&lt;br&gt;таблица поступлений&lt;br&gt;таблица бюджетов, которым может передаваться часть суммы&lt;br&gt;&lt;div&gt;&lt;br/&gt;&lt;/div&gt;" style="text;html=1;align=left;verticalAlign=top;whiteSpace=wrap;rounded=0;horizontal=1;fillColor=#d5e8d4;strokeColor=#82b366;" vertex="1" parent="1">
          <mxGeometry x="-1200" y="-800" width="360" height="170" as="geometry" />
        </mxCell>
        <mxCell id="yVNcflpGH8CNTxHUd0Nu-2" value="Общее назначение проекта (детально проработать функционал, пользовательские функции)&lt;br&gt;&lt;br&gt;- рассмотрению подлежит рамка месяца&lt;br&gt;&lt;br&gt;- добавить доход (поступление извне)&lt;br&gt;&lt;br&gt;&lt;br&gt;&lt;div&gt;&lt;br&gt;&lt;/div&gt;&lt;div&gt;&lt;br&gt;&lt;/div&gt;&lt;div&gt;&lt;br&gt;&lt;/div&gt;" style="text;html=1;align=left;verticalAlign=top;whiteSpace=wrap;rounded=0;horizontal=1;fillColor=#fff2cc;strokeColor=#d6b656;gradientColor=#ffd966;" vertex="1" parent="1">
          <mxGeometry x="-2080" y="-1750" width="440" height="110" as="geometry" />
        </mxCell>
        <mxCell id="yVNcflpGH8CNTxHUd0Nu-3" value="Модуль отслеживания налогов&lt;br&gt;&lt;br&gt;- берется сумма из таблицы общих поступлений (поступление помечено taxdubt = true)&amp;nbsp;&lt;br&gt;- расчет по ставке 6% от всех taxdubt поступлений&lt;br&gt;&lt;br&gt;- пополнение когда совершен платеж&lt;br&gt;-- платеж социальный взнос&lt;br&gt;-- платеж авансовый, оплата налогового долга" style="text;html=1;align=left;verticalAlign=top;whiteSpace=wrap;rounded=0;horizontal=1;fillColor=#fff2cc;strokeColor=#d6b656;gradientColor=#ffd966;" vertex="1" parent="1">
          <mxGeometry x="-2080" y="-1230" width="440" height="150" as="geometry" />
        </mxCell>
        <mxCell id="yVNcflpGH8CNTxHUd0Nu-4" value="Сервисы модулей&lt;br&gt;&lt;br&gt;сервис берет несколько репозиторием для выполнения своей функции над сущностью страницы" style="text;html=1;align=left;verticalAlign=top;whiteSpace=wrap;rounded=0;horizontal=1;fillColor=#d5e8d4;strokeColor=#82b366;gradientColor=#97d077;" vertex="1" parent="1">
          <mxGeometry x="-1680" y="-790" width="360" height="90" as="geometry" />
        </mxCell>
        <mxCell id="yVNcflpGH8CNTxHUd0Nu-5" value="&lt;div style=&quot;border-color: var(--border-color);&quot;&gt;- бюджет долга&lt;/div&gt;&lt;div style=&quot;border-color: var(--border-color);&quot;&gt;-- добавляется сумма долга&lt;/div&gt;&lt;div style=&quot;border-color: var(--border-color);&quot;&gt;--- при каждом использовании кредитной карты добавляется новая сумма&lt;/div&gt;&lt;div style=&quot;border-color: var(--border-color);&quot;&gt;--- или происходит правка состояния долга по факту на данный момент&lt;/div&gt;&lt;div style=&quot;border-color: var(--border-color);&quot;&gt;-- не рассматривается в рамках одного месяца&lt;/div&gt;&lt;div style=&quot;border-color: var(--border-color);&quot;&gt;-- все пополнения рассматриваются за все месяцы&lt;/div&gt;&lt;div style=&quot;border-color: var(--border-color);&quot;&gt;-- пополнение имеет поле commited, показывая долг реально погашен или только заложен&lt;/div&gt;" style="text;html=1;align=left;verticalAlign=top;whiteSpace=wrap;rounded=0;horizontal=1;fillColor=#fff2cc;strokeColor=#d6b656;gradientColor=#ffd966;" vertex="1" parent="1">
          <mxGeometry x="-2080" y="-1400" width="440" height="160" as="geometry" />
        </mxCell>
        <mxCell id="yVNcflpGH8CNTxHUd0Nu-26" style="edgeStyle=none;rounded=0;orthogonalLoop=1;jettySize=auto;html=1;exitX=0;exitY=0.5;exitDx=0;exitDy=0;" edge="1" parent="1" source="yVNcflpGH8CNTxHUd0Nu-6" target="yVNcflpGH8CNTxHUd0Nu-25">
          <mxGeometry relative="1" as="geometry" />
        </mxCell>
        <mxCell id="yVNcflpGH8CNTxHUd0Nu-41" style="edgeStyle=none;rounded=0;orthogonalLoop=1;jettySize=auto;html=1;exitX=0;exitY=0;exitDx=0;exitDy=0;" edge="1" parent="1" source="yVNcflpGH8CNTxHUd0Nu-6" target="yVNcflpGH8CNTxHUd0Nu-39">
          <mxGeometry relative="1" as="geometry" />
        </mxCell>
        <mxCell id="yVNcflpGH8CNTxHUd0Nu-6" value="&lt;div style=&quot;border-color: var(--border-color);&quot;&gt;Бюджет&lt;/div&gt;&lt;div style=&quot;border-color: var(--border-color);&quot;&gt;&lt;br&gt;&lt;/div&gt;&lt;div style=&quot;border-color: var(--border-color);&quot;&gt;- открыть бюджет&lt;br style=&quot;border-color: var(--border-color);&quot;&gt;-- бюджет может быть открыт и закрыт&lt;br style=&quot;border-color: var(--border-color);&quot;&gt;-- добавлять в бюджет расходы&lt;br style=&quot;border-color: var(--border-color);&quot;&gt;-- в бюджет можно выделить сумму&lt;/div&gt;&lt;div style=&quot;border-color: var(--border-color);&quot;&gt;-- сумма пополнения бюджета не учитывается при расчете произведенных расходов месяца&lt;br style=&quot;border-color: var(--border-color);&quot;&gt;--- позволит прикинуть сумму на конец месяца&lt;br style=&quot;border-color: var(--border-color);&quot;&gt;-- определяющее в бюджете будет реально выполненные расходы&lt;br&gt;&lt;/div&gt;" style="text;html=1;align=left;verticalAlign=top;whiteSpace=wrap;rounded=0;horizontal=1;fillColor=#fff2cc;strokeColor=#d6b656;gradientColor=#ffd966;" vertex="1" parent="1">
          <mxGeometry x="-2080" y="-1600" width="440" height="160" as="geometry" />
        </mxCell>
        <mxCell id="yVNcflpGH8CNTxHUd0Nu-9" style="edgeStyle=orthogonalEdgeStyle;rounded=0;orthogonalLoop=1;jettySize=auto;html=1;exitX=0;exitY=0.5;exitDx=0;exitDy=0;" edge="1" parent="1" source="yVNcflpGH8CNTxHUd0Nu-7" target="yVNcflpGH8CNTxHUd0Nu-8">
          <mxGeometry relative="1" as="geometry" />
        </mxCell>
        <mxCell id="yVNcflpGH8CNTxHUd0Nu-7" value="Сервис приложения в облаке&lt;br&gt;морда в ангуляре" style="text;html=1;align=left;verticalAlign=top;whiteSpace=wrap;rounded=0;horizontal=1;fillColor=#d5e8d4;strokeColor=#82b366;" vertex="1" parent="1">
          <mxGeometry x="950" y="40" width="440" height="70" as="geometry" />
        </mxCell>
        <mxCell id="yVNcflpGH8CNTxHUd0Nu-8" value="локально и удаленно&lt;br&gt;&lt;br&gt;локальный докер крутит локальный ангуляр и локальный web api&lt;br&gt;локальный web api может обращаться к удаленному&lt;br&gt;&lt;br&gt;либо просто делать коммит... если есть интернет... но это глупо&lt;br&gt;&lt;br&gt;ПРОСТО СДЕЛАТЬ в облачном решении&lt;br&gt;если нет интернета, записать данные на бумажке" style="text;html=1;align=left;verticalAlign=top;whiteSpace=wrap;rounded=0;horizontal=1;fillColor=#d5e8d4;strokeColor=#82b366;" vertex="1" parent="1">
          <mxGeometry x="400" y="40" width="440" height="160" as="geometry" />
        </mxCell>
        <mxCell id="yVNcflpGH8CNTxHUd0Nu-11" value="главная задача&lt;br&gt;вносить расходы, имеющие категории&lt;br&gt;выделять сумму бюджета на месяц&lt;br&gt;- планировать бюджет&lt;br&gt;-- пополнение бюджета" style="text;html=1;align=left;verticalAlign=top;whiteSpace=wrap;rounded=0;horizontal=1;fillColor=#d5e8d4;strokeColor=#82b366;" vertex="1" parent="1">
          <mxGeometry x="280" y="240" width="440" height="100" as="geometry" />
        </mxCell>
        <mxCell id="yVNcflpGH8CNTxHUd0Nu-12" value="коллекция бюджетов на первой странице&lt;br&gt;&lt;br&gt;при входе в бюджет открывается его страница&lt;br&gt;на этой странице коллекция категорий покупок с общей стоимостью каждой&lt;br&gt;&lt;br&gt;войдя в категорию можно глянуть конкретные платежы payment" style="text;html=1;align=left;verticalAlign=top;whiteSpace=wrap;rounded=0;horizontal=1;fillColor=#d5e8d4;strokeColor=#82b366;" vertex="1" parent="1">
          <mxGeometry x="280" y="360" width="440" height="120" as="geometry" />
        </mxCell>
        <mxCell id="yVNcflpGH8CNTxHUd0Nu-14" value="первичная функция: создать payment в контексте бюджета&lt;br&gt;&lt;br&gt;на странице создания платежа можно выбрать бюджет" style="text;html=1;align=left;verticalAlign=top;whiteSpace=wrap;rounded=0;horizontal=1;fillColor=#d5e8d4;strokeColor=#82b366;" vertex="1" parent="1">
          <mxGeometry x="280" y="500" width="440" height="120" as="geometry" />
        </mxCell>
        <mxCell id="yVNcflpGH8CNTxHUd0Nu-15" value="мы можем просто добавить платеж в бюджет, дать ему имя, commited установить false, что будет означать запланированный платеж" style="text;html=1;align=left;verticalAlign=top;whiteSpace=wrap;rounded=0;horizontal=1;fillColor=#d5e8d4;strokeColor=#82b366;" vertex="1" parent="1">
          <mxGeometry x="280" y="640" width="440" height="40" as="geometry" />
        </mxCell>
        <mxCell id="yVNcflpGH8CNTxHUd0Nu-16" value="любой платеж из системы иерархии платежей можно добавить в любой бюджет" style="text;html=1;align=left;verticalAlign=top;whiteSpace=wrap;rounded=0;horizontal=1;fillColor=#d5e8d4;strokeColor=#82b366;" vertex="1" parent="1">
          <mxGeometry x="280" y="700" width="440" height="40" as="geometry" />
        </mxCell>
        <mxCell id="yVNcflpGH8CNTxHUd0Nu-17" value="Задача 1&lt;br&gt;- главная страница должна содержать&lt;br&gt;-- текущий год, текущий месяц&lt;br&gt;-- сумма всех трат за текущий месяц&lt;br&gt;-- коллекция строк бюджетов&lt;br&gt;-- кнопка создать бюджет&lt;br&gt;-- кнопка перейти на страницу табеля&lt;br&gt;-- краткая информация по табелю в своей секции" style="text;html=1;align=left;verticalAlign=top;whiteSpace=wrap;rounded=0;horizontal=1;fillColor=#ffe6cc;strokeColor=#d79b00;" vertex="1" parent="1">
          <mxGeometry x="280" y="760" width="440" height="130" as="geometry" />
        </mxCell>
        <mxCell id="yVNcflpGH8CNTxHUd0Nu-18" value="Задача 2&lt;br&gt;- при активации (вхождении) бюджета переход на страницу детализации бюджета - расходы по категориям&lt;br&gt;- на странице детализации можн выбрать год, месяц&lt;br&gt;- коллекция категорий расходов&lt;br&gt;- кнопка закрыть бюджет" style="text;html=1;align=left;verticalAlign=top;whiteSpace=wrap;rounded=0;horizontal=1;fillColor=#ffe6cc;strokeColor=#d79b00;" vertex="1" parent="1">
          <mxGeometry x="280" y="1080" width="440" height="100" as="geometry" />
        </mxCell>
        <mxCell id="yVNcflpGH8CNTxHUd0Nu-19" value="Задача 1.2&lt;br&gt;- с главной страницы можно перейти на страницу добавить платеж&lt;br&gt;- страница добавления платежа:&lt;br&gt;-- выбор бюджета&lt;br&gt;-- коллекция платежей&lt;br&gt;-- выбор даты (используется для создания платежа а так же показывает все платежы на данную дату)" style="text;html=1;align=left;verticalAlign=top;whiteSpace=wrap;rounded=0;horizontal=1;fillColor=#ffe6cc;strokeColor=#d79b00;" vertex="1" parent="1">
          <mxGeometry x="280" y="910" width="440" height="130" as="geometry" />
        </mxCell>
        <mxCell id="yVNcflpGH8CNTxHUd0Nu-22" style="edgeStyle=none;rounded=0;orthogonalLoop=1;jettySize=auto;html=1;exitX=1;exitY=0.5;exitDx=0;exitDy=0;entryX=0;entryY=0.5;entryDx=0;entryDy=0;" edge="1" parent="1" source="yVNcflpGH8CNTxHUd0Nu-20" target="yVNcflpGH8CNTxHUd0Nu-21">
          <mxGeometry relative="1" as="geometry" />
        </mxCell>
        <mxCell id="yVNcflpGH8CNTxHUd0Nu-24" style="edgeStyle=none;rounded=0;orthogonalLoop=1;jettySize=auto;html=1;exitX=0.5;exitY=1;exitDx=0;exitDy=0;" edge="1" parent="1" source="yVNcflpGH8CNTxHUd0Nu-20" target="yVNcflpGH8CNTxHUd0Nu-23">
          <mxGeometry relative="1" as="geometry" />
        </mxCell>
        <mxCell id="yVNcflpGH8CNTxHUd0Nu-31" style="edgeStyle=none;rounded=0;orthogonalLoop=1;jettySize=auto;html=1;exitX=0.5;exitY=0;exitDx=0;exitDy=0;" edge="1" parent="1" source="yVNcflpGH8CNTxHUd0Nu-20" target="yVNcflpGH8CNTxHUd0Nu-29">
          <mxGeometry relative="1" as="geometry" />
        </mxCell>
        <mxCell id="yVNcflpGH8CNTxHUd0Nu-32" style="edgeStyle=none;rounded=0;orthogonalLoop=1;jettySize=auto;html=1;exitX=0;exitY=0.25;exitDx=0;exitDy=0;" edge="1" parent="1" source="yVNcflpGH8CNTxHUd0Nu-20" target="yVNcflpGH8CNTxHUd0Nu-30">
          <mxGeometry relative="1" as="geometry" />
        </mxCell>
        <mxCell id="yVNcflpGH8CNTxHUd0Nu-36" style="edgeStyle=none;rounded=0;orthogonalLoop=1;jettySize=auto;html=1;exitX=0.25;exitY=1;exitDx=0;exitDy=0;" edge="1" parent="1" source="yVNcflpGH8CNTxHUd0Nu-20" target="yVNcflpGH8CNTxHUd0Nu-35">
          <mxGeometry relative="1" as="geometry" />
        </mxCell>
        <mxCell id="yVNcflpGH8CNTxHUd0Nu-20" value="Главное окно&lt;br&gt;- текущий год, месяц&lt;br&gt;- сумма всех расходов на данный месяц&lt;br&gt;- коллекция открытых бюджетов" style="text;html=1;align=left;verticalAlign=top;whiteSpace=wrap;rounded=0;horizontal=1;fillColor=#ffe6cc;strokeColor=#d79b00;" vertex="1" parent="1">
          <mxGeometry x="-580" y="660" width="180" height="110" as="geometry" />
        </mxCell>
        <mxCell id="yVNcflpGH8CNTxHUd0Nu-28" style="edgeStyle=none;rounded=0;orthogonalLoop=1;jettySize=auto;html=1;exitX=0.5;exitY=0;exitDx=0;exitDy=0;" edge="1" parent="1" source="yVNcflpGH8CNTxHUd0Nu-21" target="yVNcflpGH8CNTxHUd0Nu-27">
          <mxGeometry relative="1" as="geometry" />
        </mxCell>
        <mxCell id="yVNcflpGH8CNTxHUd0Nu-21" value="Окно платежей (расхода)&lt;br&gt;- выбор бюджета&lt;br&gt;- выбор даты&lt;br&gt;- коллекция платежей на данную дату; можно включить &quot;показать только данный бюджет&quot;&lt;div&gt;&lt;br&gt;&lt;/div&gt;" style="text;html=1;align=left;verticalAlign=top;whiteSpace=wrap;rounded=0;horizontal=1;fillColor=#ffe6cc;strokeColor=#d79b00;" vertex="1" parent="1">
          <mxGeometry x="-320" y="640" width="200" height="100" as="geometry" />
        </mxCell>
        <mxCell id="yVNcflpGH8CNTxHUd0Nu-23" value="Окно бюджета&lt;br&gt;- текущий год и месяц&lt;br&gt;- сумма расходов&lt;br&gt;- сумма пополнения бюджета&lt;br&gt;- коллекций расходов по категориям&lt;br&gt;- кнопка &quot;пополнить бюджет&quot;" style="text;html=1;align=left;verticalAlign=top;whiteSpace=wrap;rounded=0;horizontal=1;fillColor=#ffe6cc;strokeColor=#d79b00;" vertex="1" parent="1">
          <mxGeometry x="-440" y="840" width="200" height="150" as="geometry" />
        </mxCell>
        <mxCell id="yVNcflpGH8CNTxHUd0Nu-38" style="edgeStyle=none;rounded=0;orthogonalLoop=1;jettySize=auto;html=1;exitX=0;exitY=0.5;exitDx=0;exitDy=0;" edge="1" parent="1" source="yVNcflpGH8CNTxHUd0Nu-25" target="yVNcflpGH8CNTxHUd0Nu-37">
          <mxGeometry relative="1" as="geometry" />
        </mxCell>
        <mxCell id="yVNcflpGH8CNTxHUd0Nu-25" value="&lt;div style=&quot;border-color: var(--border-color);&quot;&gt;Было бы хорошо баллансировать допустимые расходы на категорию&lt;/div&gt;&lt;div style=&quot;border-color: var(--border-color);&quot;&gt;Например потратили больше на медицину, установить допустимые лимиты на сладкое&lt;/div&gt;" style="text;html=1;align=left;verticalAlign=top;whiteSpace=wrap;rounded=0;horizontal=1;fillColor=#fff2cc;strokeColor=#d6b656;gradientColor=#ffd966;" vertex="1" parent="1">
          <mxGeometry x="-2410" y="-1560" width="250" height="80" as="geometry" />
        </mxCell>
        <mxCell id="yVNcflpGH8CNTxHUd0Nu-34" style="edgeStyle=none;rounded=0;orthogonalLoop=1;jettySize=auto;html=1;exitX=0.5;exitY=0;exitDx=0;exitDy=0;" edge="1" parent="1" source="yVNcflpGH8CNTxHUd0Nu-27" target="yVNcflpGH8CNTxHUd0Nu-33">
          <mxGeometry relative="1" as="geometry" />
        </mxCell>
        <mxCell id="yVNcflpGH8CNTxHUd0Nu-27" value="Окно создания платежа&lt;br&gt;- выбрать бюджет&lt;br&gt;- выбрать дату&lt;br&gt;- выбрать payment-sample&lt;br&gt;- установить цену&lt;br&gt;- установить количество (по умолчанию 1)" style="text;html=1;align=left;verticalAlign=top;whiteSpace=wrap;rounded=0;horizontal=1;fillColor=#ffe6cc;strokeColor=#d79b00;" vertex="1" parent="1">
          <mxGeometry x="-280" y="460" width="200" height="120" as="geometry" />
        </mxCell>
        <mxCell id="yVNcflpGH8CNTxHUd0Nu-29" value="Страница менеджмента paymentSample collection" style="text;html=1;align=left;verticalAlign=top;whiteSpace=wrap;rounded=0;horizontal=1;fillColor=#ffe6cc;strokeColor=#d79b00;" vertex="1" parent="1">
          <mxGeometry x="-570" y="480" width="160" height="80" as="geometry" />
        </mxCell>
        <mxCell id="yVNcflpGH8CNTxHUd0Nu-30" value="Страница менеджмента категорий и поисковых тегов" style="text;html=1;align=left;verticalAlign=top;whiteSpace=wrap;rounded=0;horizontal=1;fillColor=#ffe6cc;strokeColor=#d79b00;" vertex="1" parent="1">
          <mxGeometry x="-780" y="480" width="180" height="80" as="geometry" />
        </mxCell>
        <mxCell id="yVNcflpGH8CNTxHUd0Nu-33" value="Страница выбора payment-sample" style="text;html=1;align=left;verticalAlign=top;whiteSpace=wrap;rounded=0;horizontal=1;fillColor=#ffe6cc;strokeColor=#d79b00;" vertex="1" parent="1">
          <mxGeometry x="-280" y="320" width="160" height="80" as="geometry" />
        </mxCell>
        <mxCell id="yVNcflpGH8CNTxHUd0Nu-35" value="Страница создать бюджет" style="text;html=1;align=left;verticalAlign=top;whiteSpace=wrap;rounded=0;horizontal=1;fillColor=#ffe6cc;strokeColor=#d79b00;" vertex="1" parent="1">
          <mxGeometry x="-780" y="840" width="180" height="80" as="geometry" />
        </mxCell>
        <mxCell id="yVNcflpGH8CNTxHUd0Nu-37" value="&lt;div style=&quot;border-color: var(--border-color);&quot;&gt;Можно создать микробюджет&lt;/div&gt;&lt;div style=&quot;border-color: var(--border-color);&quot;&gt;Связать его с какой то категорией&lt;/div&gt;&lt;div style=&quot;border-color: var(--border-color);&quot;&gt;Выделить добавить сумму&lt;/div&gt;&lt;div style=&quot;border-color: var(--border-color);&quot;&gt;Этот бюджет отслеживает эту категорию.&lt;/div&gt;&lt;div style=&quot;border-color: var(--border-color);&quot;&gt;&lt;br&gt;&lt;/div&gt;&lt;div style=&quot;border-color: var(--border-color);&quot;&gt;Либо просто добавить категорию в отдел наблюдения&lt;/div&gt;" style="text;html=1;align=left;verticalAlign=top;whiteSpace=wrap;rounded=0;horizontal=1;fillColor=#fff2cc;strokeColor=#d6b656;gradientColor=#ffd966;" vertex="1" parent="1">
          <mxGeometry x="-2720" y="-1559" width="250" height="119" as="geometry" />
        </mxCell>
        <mxCell id="yVNcflpGH8CNTxHUd0Nu-42" style="edgeStyle=none;rounded=0;orthogonalLoop=1;jettySize=auto;html=1;exitX=0;exitY=0.25;exitDx=0;exitDy=0;" edge="1" parent="1" source="yVNcflpGH8CNTxHUd0Nu-39" target="yVNcflpGH8CNTxHUd0Nu-40">
          <mxGeometry relative="1" as="geometry" />
        </mxCell>
        <mxCell id="yVNcflpGH8CNTxHUd0Nu-39" value="&lt;div style=&quot;border-color: var(--border-color);&quot;&gt;Строить коллекцию бюджетов по проведенным платежам.&lt;/div&gt;&lt;div style=&quot;border-color: var(--border-color);&quot;&gt;Какие бюджеты показать, если платежы были в указанный месяц.&lt;/div&gt;&lt;div style=&quot;border-color: var(--border-color);&quot;&gt;Это нужно чтобы показать и те бюджеты, которые закрыты, но платежы есть в указанный месяц.&lt;/div&gt;" style="text;html=1;align=left;verticalAlign=top;whiteSpace=wrap;rounded=0;horizontal=1;fillColor=#fff2cc;strokeColor=#d6b656;gradientColor=#ffd966;" vertex="1" parent="1">
          <mxGeometry x="-2410" y="-1770" width="250" height="130" as="geometry" />
        </mxCell>
        <mxCell id="yVNcflpGH8CNTxHUd0Nu-40" value="&lt;div style=&quot;border-color: var(--border-color);&quot;&gt;&lt;span style=&quot;background-color: initial;&quot;&gt;Закрытый бюджет не показывается при создании платежа, а так же если нет платежей по ему в текущем или указанном месяце.&lt;/span&gt;&lt;br&gt;&lt;/div&gt;" style="text;html=1;align=left;verticalAlign=top;whiteSpace=wrap;rounded=0;horizontal=1;fillColor=#fff2cc;strokeColor=#d6b656;gradientColor=#ffd966;" vertex="1" parent="1">
          <mxGeometry x="-2690" y="-1800" width="250" height="80" as="geometry" />
        </mxCell>
        <mxCell id="yVNcflpGH8CNTxHUd0Nu-44" style="edgeStyle=none;rounded=0;orthogonalLoop=1;jettySize=auto;html=1;exitX=0;exitY=0.5;exitDx=0;exitDy=0;entryX=1;entryY=0.5;entryDx=0;entryDy=0;" edge="1" parent="1" source="yVNcflpGH8CNTxHUd0Nu-43" target="yVNcflpGH8CNTxHUd0Nu-21">
          <mxGeometry relative="1" as="geometry" />
        </mxCell>
        <mxCell id="yVNcflpGH8CNTxHUd0Nu-43" value="бюджет уже здесь выбран" style="rounded=1;whiteSpace=wrap;html=1;spacingTop=2;spacingLeft=2;spacingBottom=2;spacingRight=2;" vertex="1" parent="1">
          <mxGeometry x="-80" y="650" width="90" height="60" as="geometry" />
        </mxCell>
        <mxCell id="yVNcflpGH8CNTxHUd0Nu-45" value="Удобно ли работать в жестком контексте выбранного бюджета?&lt;br&gt;Если вносить чек, документ.&lt;br&gt;Можно пометить для себя какие покупки в рамках какого бюджета.&lt;br&gt;&lt;br&gt;Тогда страница платежей открывается из от страницы детали бюджета" style="rounded=1;whiteSpace=wrap;html=1;spacingTop=2;spacingLeft=2;spacingBottom=2;spacingRight=2;verticalAlign=top;fillColor=#d5e8d4;strokeColor=#82b366;" vertex="1" parent="1">
          <mxGeometry x="-810" y="1080" width="240" height="130" as="geometry" />
        </mxCell>
        <mxCell id="n00z6LVE8Ppg5yHMYB3P-1" value="Страница пакетного внесения покупок" style="text;html=1;align=left;verticalAlign=top;whiteSpace=wrap;rounded=0;horizontal=1;fillColor=#ffe6cc;strokeColor=#d79b00;" vertex="1" parent="1">
          <mxGeometry x="-425" y="1150" width="200" height="80" as="geometry" />
        </mxCell>
        <mxCell id="U8y-qIfbesmW8USaMvwc-1" value="Порядок добавления платежа&lt;br&gt;&lt;br&gt;- перейти на страницу выбора payment-example&lt;br&gt;- перейти на страницу create-payment и передать полученный payment-example" style="rounded=0;whiteSpace=wrap;html=1;spacingTop=2;spacingLeft=2;spacingBottom=2;spacingRight=2;verticalAlign=top;align=left;" vertex="1" parent="1">
          <mxGeometry x="-160" y="795" width="320" height="95" as="geometry" />
        </mxCell>
      </root>
    </mxGraphModel>
  </diagram>
  <diagram id="AhkhZptK_m2ipVIG2xRM" name="Page-3">
    <mxGraphModel dx="1500" dy="2036" grid="1" gridSize="10" guides="1" tooltips="1" connect="1" arrows="1" fold="1" page="1" pageScale="1" pageWidth="850" pageHeight="1100" math="0" shadow="0">
      <root>
        <mxCell id="0" />
        <mxCell id="1" parent="0" />
        <mxCell id="l4Jrg2aDRjVWUX65XS8w-3" value="" style="rounded=0;whiteSpace=wrap;html=1;fillColor=none;" vertex="1" parent="1">
          <mxGeometry x="60" y="10" width="610" height="230" as="geometry" />
        </mxCell>
        <mxCell id="l4Jrg2aDRjVWUX65XS8w-1" value="Сладости" style="rounded=0;whiteSpace=wrap;html=1;" vertex="1" parent="1">
          <mxGeometry x="80" y="140" width="260" height="20" as="geometry" />
        </mxCell>
        <mxCell id="l4Jrg2aDRjVWUX65XS8w-2" value="Страница &quot;Бюджет&quot;" style="text;html=1;align=center;verticalAlign=middle;whiteSpace=wrap;rounded=0;" vertex="1" parent="1">
          <mxGeometry x="60" y="-60" width="130" height="30" as="geometry" />
        </mxCell>
        <mxCell id="l4Jrg2aDRjVWUX65XS8w-6" value="Бюджет: Домашний" style="text;html=1;align=left;verticalAlign=middle;whiteSpace=wrap;rounded=0;" vertex="1" parent="1">
          <mxGeometry x="80" y="20" width="120" height="30" as="geometry" />
        </mxCell>
        <mxCell id="l4Jrg2aDRjVWUX65XS8w-7" value="2024" style="rounded=0;whiteSpace=wrap;html=1;align=left;" vertex="1" parent="1">
          <mxGeometry x="80" y="50" width="60" height="20" as="geometry" />
        </mxCell>
        <mxCell id="l4Jrg2aDRjVWUX65XS8w-8" value="Март" style="rounded=0;whiteSpace=wrap;html=1;align=left;" vertex="1" parent="1">
          <mxGeometry x="150" y="50" width="130" height="20" as="geometry" />
        </mxCell>
        <mxCell id="0OP0e8v2WEzEoJfO2HEf-1" value="Расход" style="text;html=1;align=left;verticalAlign=middle;whiteSpace=wrap;rounded=0;" vertex="1" parent="1">
          <mxGeometry x="300" y="80" width="50" height="30" as="geometry" />
        </mxCell>
        <mxCell id="0OP0e8v2WEzEoJfO2HEf-2" value="16 500" style="rounded=0;whiteSpace=wrap;html=1;align=left;shadow=0;glass=0;fillColor=#f5f5f5;fontColor=#333333;strokeColor=#666666;" vertex="1" parent="1">
          <mxGeometry x="350" y="85" width="110" height="20" as="geometry" />
        </mxCell>
        <mxCell id="brzglIeVYmmqSdFA6l_z-1" value="Категория" style="rounded=0;whiteSpace=wrap;html=1;fillColor=#f5f5f5;fontColor=#333333;strokeColor=#666666;" vertex="1" parent="1">
          <mxGeometry x="80" y="120" width="260" height="20" as="geometry" />
        </mxCell>
        <mxCell id="brzglIeVYmmqSdFA6l_z-2" value="Сумма" style="rounded=0;whiteSpace=wrap;html=1;fillColor=#f5f5f5;fontColor=#333333;strokeColor=#666666;" vertex="1" parent="1">
          <mxGeometry x="340" y="120" width="120" height="20" as="geometry" />
        </mxCell>
        <mxCell id="brzglIeVYmmqSdFA6l_z-3" value="Продукты" style="rounded=0;whiteSpace=wrap;html=1;" vertex="1" parent="1">
          <mxGeometry x="80" y="160" width="260" height="20" as="geometry" />
        </mxCell>
        <mxCell id="brzglIeVYmmqSdFA6l_z-4" value="5000" style="rounded=0;whiteSpace=wrap;html=1;" vertex="1" parent="1">
          <mxGeometry x="340" y="140" width="120" height="20" as="geometry" />
        </mxCell>
        <mxCell id="brzglIeVYmmqSdFA6l_z-5" value="8500" style="rounded=0;whiteSpace=wrap;html=1;" vertex="1" parent="1">
          <mxGeometry x="340" y="160" width="120" height="20" as="geometry" />
        </mxCell>
        <mxCell id="brzglIeVYmmqSdFA6l_z-6" value="Хозтовары" style="rounded=0;whiteSpace=wrap;html=1;" vertex="1" parent="1">
          <mxGeometry x="80" y="180" width="260" height="20" as="geometry" />
        </mxCell>
        <mxCell id="brzglIeVYmmqSdFA6l_z-7" value="7000" style="rounded=0;whiteSpace=wrap;html=1;" vertex="1" parent="1">
          <mxGeometry x="340" y="180" width="120" height="20" as="geometry" />
        </mxCell>
        <mxCell id="brzglIeVYmmqSdFA6l_z-8" value="Сумма бюджета" style="text;html=1;align=left;verticalAlign=middle;whiteSpace=wrap;rounded=0;" vertex="1" parent="1">
          <mxGeometry x="80" y="80" width="110" height="30" as="geometry" />
        </mxCell>
        <mxCell id="brzglIeVYmmqSdFA6l_z-9" value="40 000" style="rounded=0;whiteSpace=wrap;html=1;align=left;shadow=0;glass=0;fillColor=#f5f5f5;fontColor=#333333;strokeColor=#666666;" vertex="1" parent="1">
          <mxGeometry x="180" y="85" width="110" height="20" as="geometry" />
        </mxCell>
        <mxCell id="KEWDtLz1DNs9hIkfbn3J-1" value="+" style="rounded=1;whiteSpace=wrap;html=1;" vertex="1" parent="1">
          <mxGeometry x="630" y="20" width="30" height="30" as="geometry" />
        </mxCell>
      </root>
    </mxGraphModel>
  </diagram>
</mxfile>
